<?xml version="1.0" encoding="UTF-8" standalone="no"?>
<!-- Created with Inkscape (http://www.inkscape.org/) -->

<svg
   xmlns:dc="http://purl.org/dc/elements/1.1/"
   xmlns:cc="http://creativecommons.org/ns#"
   xmlns:rdf="http://www.w3.org/1999/02/22-rdf-syntax-ns#"
   xmlns:svg="http://www.w3.org/2000/svg"
   xmlns="http://www.w3.org/2000/svg"
   xmlns:sodipodi="http://sodipodi.sourceforge.net/DTD/sodipodi-0.dtd"
   xmlns:inkscape="http://www.inkscape.org/namespaces/inkscape"
   width="24"
   height="24"
   id="svg2"
   version="1.1"
   inkscape:version="0.48.4 r9939"
   sodipodi:docname="megasync_2717_edb2de513ea9f0779804343d19513ffa.svg">
  <defs
     id="defs4" />
  <sodipodi:namedview
     id="base"
     pagecolor="#000000"
     bordercolor="#666666"
     borderopacity="1.0"
     inkscape:pageopacity="0.30980392"
     inkscape:pageshadow="2"
     inkscape:zoom="22.627417"
     inkscape:cx="11.29225"
     inkscape:cy="10.222615"
     inkscape:document-units="px"
     inkscape:current-layer="layer1"
     showgrid="true"
     inkscape:window-width="1440"
     inkscape:window-height="845"
     inkscape:window-x="0"
     inkscape:window-y="30"
     inkscape:window-maximized="1"
     inkscape:snap-bbox="true"
     inkscape:bbox-paths="true">
    <inkscape:grid
       type="xygrid"
       id="grid2985"
       empspacing="4"
       visible="true"
       enabled="true"
       snapvisiblegridlinesonly="true"
       spacingx="0.5px"
       spacingy="0.5px"
       color="#000000"
       opacity="0.1254902"
       empcolor="#000000"
       empopacity="0.25098039" />
    <inkscape:grid
       type="xygrid"
       id="grid3079"
       empspacing="5"
       visible="true"
       enabled="true"
       snapvisiblegridlinesonly="true" />
  </sodipodi:namedview>
  <metadata
     id="metadata7">
    <rdf:RDF>
      <cc:Work
         rdf:about="">
        <dc:format>image/svg+xml</dc:format>
        <dc:type
           rdf:resource="http://purl.org/dc/dcmitype/StillImage" />
        <dc:title></dc:title>
      </cc:Work>
    </rdf:RDF>
  </metadata>
  <g
     inkscape:label="Layer 1"
     inkscape:groupmode="layer"
     id="layer1"
     transform="translate(0,-1028.3622)">
    <path
       style="opacity:0.98000003999999996;fill:#ffffff;fill-opacity:0.52244896;stroke:none"
       d="M 11.25 5 C 7.7797431 5 4.9723328 7.631 4.59375 11 C 4.56157 10.9994 4.5323424 11 4.5 11 C 2.014719 11 5.9211895e-16 13.0148 0 15.5 C 0 17.9854 2.014719 20 4.5 20 L 18 20 C 21.31371 20 24 17.3138 24 14 C 24 10.6863 21.31371 8 18 8 C 17.632953 8 17.255107 8.09335 16.90625 8.15625 C 15.710065 6.26585 13.652602 5 11.25 5 z M 6 11 L 9 11 L 12 14 L 15 11 L 18 11 L 18 18 L 16 18 L 16 12.65625 L 12 16.5 L 8 12.65625 L 8 18 L 6 18 L 6 11 z "
       transform="translate(0,1028.3622)"
       id="rect2990" />
    <g
       transform="matrix(1.3523537,0,0,0.88734172,-2.3999995,0)"
       style="font-size:11.02047253px;font-style:normal;font-weight:normal;line-height:125%;letter-spacing:0px;word-spacing:0px;fill:#000000;fill-opacity:1;stroke:none;font-family:Arial Black;-inkscape-font-specification:Arial Black"
       id="text2986" />
  </g>
</svg>
